<svg width="100" height="100" viewBox="0 0 100 100" fill="none" xmlns="http://www.w3.org/2000/svg">
<path d="M83.5132 83.5132C78.8162 88.2102 71.1727 88.2102 66.4757 83.5132C61.7787 78.8162 61.7787 71.1727 66.4757 66.4757C71.1727 61.7787 78.8162 61.7787 83.5132 66.4757C88.2102 71.1727 88.2102 78.8162 83.5132 83.5132ZM74.9949 62.2022C71.5774 62.2022 68.365 63.5326 65.9488 65.9488C63.5326 68.365 62.2022 71.5774 62.2022 74.9949C62.2022 78.4116 63.5326 81.6239 65.9488 84.0401C68.365 86.4563 71.5774 87.7867 74.9949 87.7867C78.4116 87.7867 81.6239 86.4563 84.0401 84.0401C86.4563 81.6239 87.7867 78.4116 87.7867 74.9949C87.7867 71.5774 86.4563 68.365 84.0401 65.9488C81.6239 63.5326 78.4116 62.2022 74.9949 62.2022Z" fill="white"/>
<path d="M81.2628 81.614L83.0191 83.3704L83.3704 83.0191L81.614 81.2628L81.2628 81.614Z" fill="white"/>
<path d="M83.7323 77.5933L86.1322 78.2359L86.2602 77.7558L83.8612 77.1132L83.7323 77.5933Z" fill="white"/>
<path d="M83.7323 72.3956L83.8612 72.8757L86.2602 72.2331L86.1322 71.753L83.7323 72.3956Z" fill="white"/>
<path d="M81.2628 68.3749L81.614 68.7261L83.3704 66.9698L83.0191 66.6185L81.2628 68.3749Z" fill="white"/>
<path d="M77.1132 66.1277L77.5933 66.2566L78.2359 63.8568L77.7558 63.7287L77.1132 66.1277Z" fill="white"/>
<path d="M71.753 63.8568L72.3956 66.2566L72.8757 66.1277L72.2331 63.7287L71.753 63.8568Z" fill="white"/>
<path d="M66.6185 66.9698L68.3749 68.7261L68.7261 68.3749L66.9698 66.6185L66.6185 66.9698Z" fill="white"/>
<path d="M63.7287 72.2331L66.1277 72.8757L66.2566 72.3956L63.8568 71.753L63.7287 72.2331Z" fill="white"/>
<path d="M63.7287 77.7558L63.8568 78.2359L66.2566 77.5933L66.1277 77.1132L63.7287 77.7558Z" fill="white"/>
<path d="M66.6185 83.0191L66.9698 83.3704L68.7261 81.614L68.3749 81.2628L66.6185 83.0191Z" fill="white"/>
<path d="M71.753 86.1321L72.2331 86.2602L72.8757 83.8612L72.3956 83.7323L71.753 86.1321Z" fill="white"/>
<path d="M77.1132 83.8612L77.7558 86.2602L78.2359 86.1321L77.5933 83.7323L77.1132 83.8612Z" fill="white"/>
<path d="M83.0618 72.7502L75.5686 74.7577C75.5382 74.6838 75.493 74.6157 75.4331 74.5558C75.191 74.3128 74.7979 74.3128 74.5558 74.5558C74.5385 74.5722 74.5238 74.5894 74.509 74.6075L68.3158 72.948L68.1877 73.4281L74.3596 75.0819L72.5048 75.5784L72.5433 75.7229L74.4162 75.2206C74.4466 75.2977 74.4926 75.3708 74.5558 75.434C74.7355 75.6137 74.9981 75.6597 75.2214 75.5727L80.7121 81.0625L81.0625 80.7121L75.5727 75.2214C75.6121 75.1188 75.6244 75.0088 75.6079 74.9013L83.1004 72.8938L83.0618 72.7502Z" fill="white"/>
<path d="M33.5169 83.5132C28.8199 88.2102 21.1764 88.2102 16.4794 83.5132C11.7824 78.8162 11.7824 71.1727 16.4794 66.4757C21.1764 61.7787 28.8199 61.7787 33.5169 66.4757C38.2139 71.1727 38.2139 78.8162 33.5169 83.5132ZM24.9977 62.2022C21.581 62.2022 18.3687 63.5326 15.9525 65.9488C13.5363 68.365 12.2059 71.5774 12.2059 74.9949C12.2059 78.4116 13.5363 81.6239 15.9525 84.0401C18.3687 86.4563 21.581 87.7867 24.9977 87.7867C28.4152 87.7867 31.6276 86.4563 34.0438 84.0401C36.46 81.6239 37.7904 78.4116 37.7904 74.9949C37.7904 71.5774 36.46 68.365 34.0438 65.9488C31.6276 63.5326 28.4152 62.2022 24.9977 62.2022Z" fill="white"/>
<path d="M16.6222 83.0191L16.9735 83.3704L18.7298 81.614L18.3786 81.2628L16.6222 83.0191Z" fill="white"/>
<path d="M21.7567 86.1321L22.2368 86.2602L22.8794 83.8612L22.3993 83.7323L21.7567 86.1321Z" fill="white"/>
<path d="M27.1169 83.8612L27.7595 86.2602L28.2396 86.1321L27.597 83.7323L27.1169 83.8612Z" fill="white"/>
<path d="M31.2665 81.614L33.0228 83.3704L33.3741 83.0191L31.6177 81.2628L31.2665 81.614Z" fill="white"/>
<path d="M33.736 77.5933L36.1358 78.2359L36.2639 77.7558L33.8649 77.1132L33.736 77.5933Z" fill="white"/>
<path d="M33.736 72.3956L33.8649 72.8757L36.2639 72.2331L36.1358 71.753L33.736 72.3956Z" fill="white"/>
<path d="M31.2665 68.3749L31.6177 68.7261L33.3741 66.9698L33.0228 66.6185L31.2665 68.3749Z" fill="white"/>
<path d="M27.1169 66.1277L27.597 66.2566L28.2396 63.8568L27.7595 63.7287L27.1169 66.1277Z" fill="white"/>
<path d="M21.7567 63.8568L22.3993 66.2566L22.8794 66.1277L22.2368 63.7287L21.7567 63.8568Z" fill="white"/>
<path d="M16.6222 66.9698L18.3786 68.7261L18.7298 68.3749L16.9735 66.6185L16.6222 66.9698Z" fill="white"/>
<path d="M13.7324 72.2331L16.1314 72.8757L16.2603 72.3956L13.8605 71.753L13.7324 72.2331Z" fill="white"/>
<path d="M13.7324 77.7558L13.8605 78.2359L16.2603 77.5933L16.1314 77.1132L13.7324 77.7558Z" fill="white"/>
<path d="M25.4368 75.434C25.6798 75.191 25.6798 74.7979 25.4368 74.5558C25.4204 74.5385 25.4032 74.5238 25.3851 74.5098L27.0446 68.3158L26.5645 68.1877L24.9107 74.3596L24.4142 72.5048L24.2698 72.5433L24.772 74.4162C24.6949 74.4466 24.6218 74.4926 24.5595 74.5558C24.3789 74.7355 24.3329 74.9981 24.4199 75.2214L18.9301 80.7121L19.2805 81.0625L24.7712 75.5727C24.8738 75.6129 24.9838 75.6244 25.0913 75.6079L27.0988 83.1004L27.2432 83.0618L25.2349 75.5686C25.3088 75.5382 25.3777 75.493 25.4368 75.434Z" fill="white"/>
<path d="M33.5169 33.5169C28.8199 38.2139 21.1764 38.2139 16.4794 33.5169C11.7824 28.8199 11.7824 21.1764 16.4794 16.4794C21.1764 11.7824 28.8199 11.7824 33.5169 16.4794C38.2139 21.1764 38.2139 28.8199 33.5169 33.5169ZM24.9977 12.2059C21.581 12.2059 18.3687 13.5363 15.9525 15.9525C13.5363 18.3687 12.2059 21.581 12.2059 24.9985C12.2059 28.4152 13.5363 31.6276 15.9525 34.0438C18.3687 36.46 21.581 37.7904 24.9977 37.7904C28.4152 37.7904 31.6276 36.46 34.0438 34.0438C36.46 31.6276 37.7904 28.4152 37.7904 24.9985C37.7904 21.581 36.46 18.3687 34.0438 15.9525C31.6276 13.5363 28.4152 12.2059 24.9977 12.2059Z" fill="white"/>
<path d="M16.6222 16.9735L18.3786 18.7298L18.7298 18.3786L16.9735 16.6222L16.6222 16.9735Z" fill="white"/>
<path d="M13.7324 22.2368L16.1314 22.8794L16.2603 22.3993L13.8605 21.7567L13.7324 22.2368Z" fill="white"/>
<path d="M13.7324 27.7595L13.8605 28.2396L16.2603 27.597L16.1314 27.1168L13.7324 27.7595Z" fill="white"/>
<path d="M16.6222 33.0228L16.9735 33.3741L18.7298 31.6177L18.3786 31.2665L16.6222 33.0228Z" fill="white"/>
<path d="M21.7567 36.1358L22.2368 36.2639L22.8794 33.8649L22.3993 33.736L21.7567 36.1358Z" fill="white"/>
<path d="M27.1169 33.8649L27.7595 36.2639L28.2396 36.1358L27.597 33.736L27.1169 33.8649Z" fill="white"/>
<path d="M31.2665 31.6177L33.0228 33.3741L33.3741 33.0228L31.6177 31.2665L31.2665 31.6177Z" fill="white"/>
<path d="M33.736 27.597L36.1358 28.2396L36.2639 27.7595L33.8649 27.1168L33.736 27.597Z" fill="white"/>
<path d="M33.736 22.3993L33.8649 22.8794L36.2639 22.2368L36.1358 21.7567L33.736 22.3993Z" fill="white"/>
<path d="M31.2665 18.3786L31.6177 18.7298L33.3741 16.9735L33.0228 16.6222L31.2665 18.3786Z" fill="white"/>
<path d="M27.1169 16.1314L27.597 16.2603L28.2396 13.8604L27.7595 13.7324L27.1169 16.1314Z" fill="white"/>
<path d="M21.7567 13.8604L22.3993 16.2603L22.8794 16.1314L22.2368 13.7324L21.7567 13.8604Z" fill="white"/>
<path d="M27.4878 24.4142L27.4493 24.2697L25.5764 24.772C25.546 24.6949 25.5 24.6218 25.4368 24.5595C25.2571 24.3789 24.9945 24.3329 24.7712 24.4199L19.2806 18.9301L18.9301 19.2814L24.42 24.7712C24.3806 24.8738 24.3682 24.9838 24.3847 25.0913L16.8922 27.0988L16.9308 27.2432L24.4241 25.2349C24.4544 25.3088 24.4996 25.3777 24.5595 25.4368C24.8016 25.6798 25.1947 25.6798 25.4368 25.4368C25.4541 25.4204 25.4688 25.4032 25.4836 25.3851L31.6768 27.0446L31.8049 26.5645L25.633 24.9107L27.4878 24.4142Z" fill="white"/>
<path d="M83.5132 33.5169C78.8162 38.2139 71.1727 38.2139 66.4757 33.5169C61.7787 28.8199 61.7787 21.1764 66.4757 16.4794C71.1727 11.7824 78.8162 11.7824 83.5132 16.4794C88.2102 21.1764 88.2102 28.8199 83.5132 33.5169ZM74.9949 12.2059C71.5774 12.2059 68.365 13.5363 65.9488 15.9525C63.5326 18.3687 62.2022 21.581 62.2022 24.9985C62.2022 28.4152 63.5326 31.6276 65.9488 34.0438C68.365 36.46 71.5774 37.7904 74.9949 37.7904C78.4116 37.7904 81.6239 36.46 84.0401 34.0438C86.4563 31.6276 87.7867 28.4152 87.7867 24.9985C87.7867 21.581 86.4563 18.3687 84.0401 15.9525C81.6239 13.5363 78.4116 12.2059 74.9949 12.2059Z" fill="white"/>
<path d="M81.2628 18.3786L81.614 18.7298L83.3704 16.9735L83.0191 16.6222L81.2628 18.3786Z" fill="white"/>
<path d="M77.1132 16.1314L77.5933 16.2603L78.2359 13.8604L77.7558 13.7324L77.1132 16.1314Z" fill="white"/>
<path d="M71.753 13.8604L72.3956 16.2603L72.8757 16.1314L72.2331 13.7324L71.753 13.8604Z" fill="white"/>
<path d="M66.6185 16.9735L68.3749 18.7298L68.7261 18.3786L66.9698 16.6222L66.6185 16.9735Z" fill="white"/>
<path d="M63.7287 22.2368L66.1277 22.8794L66.2566 22.3993L63.8568 21.7567L63.7287 22.2368Z" fill="white"/>
<path d="M63.7287 27.7595L63.8568 28.2396L66.2566 27.597L66.1277 27.1168L63.7287 27.7595Z" fill="white"/>
<path d="M66.6185 33.0228L66.9698 33.3741L68.7261 31.6177L68.3749 31.2665L66.6185 33.0228Z" fill="white"/>
<path d="M71.753 36.1358L72.2331 36.2639L72.8757 33.8649L72.3956 33.736L71.753 36.1358Z" fill="white"/>
<path d="M77.1132 33.8649L77.7558 36.2639L78.2359 36.1358L77.5933 33.736L77.1132 33.8649Z" fill="white"/>
<path d="M81.2628 31.6177L83.0191 33.3741L83.3704 33.0228L81.614 31.2665L81.2628 31.6177Z" fill="white"/>
<path d="M83.7323 27.597L86.1322 28.2396L86.2602 27.7595L83.8612 27.1168L83.7323 27.597Z" fill="white"/>
<path d="M83.7323 22.3993L83.8612 22.8794L86.2602 22.2368L86.1322 21.7567L83.7323 22.3993Z" fill="white"/>
<path d="M80.7121 18.9301L75.2214 24.4199C75.1188 24.3805 75.0088 24.3682 74.9013 24.3847L72.8938 16.8922L72.7494 16.9308L74.7577 24.424C74.6838 24.4544 74.6149 24.4996 74.5558 24.5595C74.3128 24.8016 74.3128 25.1947 74.5558 25.4368C74.5722 25.4541 74.5894 25.4688 74.6075 25.4836L72.948 31.6768L73.4281 31.8049L75.0819 25.633L75.5784 27.4878L75.7229 27.4493L75.2206 25.5763C75.2977 25.546 75.3708 25.5 75.4331 25.4368C75.6137 25.2571 75.6597 24.9945 75.5727 24.7712L81.0625 19.2814L80.7121 18.9301Z" fill="white"/>
<path d="M59.0416 90.9474C56.6261 88.5311 53.413 87.1999 49.9963 87.1999C46.5796 87.1999 43.3665 88.5311 40.9511 90.9474C38.5348 93.3628 37.2036 96.5759 37.2036 99.9926H37.9488C37.9488 93.3496 43.3533 87.946 49.9963 87.946C56.6393 87.946 62.0438 93.3496 62.0438 99.9926H62.789C62.789 96.5759 61.4578 93.3628 59.0416 90.9474Z" fill="white"/>
<path d="M59.1097 99.7439V99.9926H61.5932V99.7439H59.1097Z" fill="white"/>
<path d="M57.7645 95.2209L58.0124 95.6518L60.1635 94.4092L59.9148 93.9791L57.7645 95.2209Z" fill="white"/>
<path d="M54.3371 91.9766L54.768 92.2252L56.0098 90.0741L55.5797 89.8254L54.3371 91.9766Z" fill="white"/>
<path d="M49.7476 90.88H50.245V88.3957H49.7476V90.88Z" fill="white"/>
<path d="M43.9828 90.0741L45.2246 92.2252L45.6555 91.9766L44.4129 89.8254L43.9828 90.0741Z" fill="white"/>
<path d="M39.8291 94.4092L41.9802 95.6518L42.2281 95.2209L40.0778 93.9791L39.8291 94.4092Z" fill="white"/>
<path d="M38.3994 99.7439V99.9926H40.8829V99.7439H38.3994Z" fill="white"/>
<path d="M50.5651 99.7439C50.5216 99.6438 50.451 99.5576 50.364 99.4928L54.2427 92.776L54.1139 92.7013L50.2343 99.4198C50.1613 99.3886 50.0808 99.3713 49.9963 99.3713C49.6532 99.3713 49.375 99.6496 49.375 99.9926H58.33V99.7439H50.5651Z" fill="white"/>
<path d="M87.9451 49.9963C87.9451 43.3533 93.3496 37.9488 99.9926 37.9488V37.2036C96.5759 37.2036 93.3628 38.5348 90.9474 40.9511C88.5311 43.3665 87.1999 46.5796 87.1999 49.9963C87.1999 53.413 88.5311 56.6261 90.9474 59.0416C93.3628 61.4578 96.5759 62.789 99.9926 62.789V62.0438C93.3496 62.0438 87.9451 56.6393 87.9451 49.9963Z" fill="white"/>
<path d="M99.7439 38.3994V40.8829H99.9926V38.3994H99.7439Z" fill="white"/>
<path d="M93.9791 40.0778L95.2209 42.2289L95.6518 41.9802L94.4092 39.8291L93.9791 40.0778Z" fill="white"/>
<path d="M89.8254 44.4129L91.9766 45.6555L92.2252 45.2246L90.0741 43.9828L89.8254 44.4129Z" fill="white"/>
<path d="M88.3957 50.245H90.8801V49.7476H88.3957V50.245Z" fill="white"/>
<path d="M89.8254 55.5797L90.0741 56.0098L92.2252 54.768L91.9766 54.3371L89.8254 55.5797Z" fill="white"/>
<path d="M93.9791 59.9148L94.4092 60.1635L95.6518 58.0123L95.2209 57.7645L93.9791 59.9148Z" fill="white"/>
<path d="M99.7439 59.1097V61.5932H99.9926V59.1097H99.7439Z" fill="white"/>
<path d="M99.3713 49.9963C99.3713 50.0201 99.3729 50.0431 99.3762 50.0652L93.8232 53.2718L94.071 53.7019L99.6052 50.5068L98.645 52.1696L98.7738 52.2443L99.7439 50.5651C99.8202 50.5979 99.904 50.6176 99.9926 50.6176V49.375C99.6495 49.375 99.3713 49.6532 99.3713 49.9963Z" fill="white"/>
<path d="M12.7927 49.9963C12.7927 46.5796 11.4615 43.3665 9.04525 40.9511C6.62902 38.5348 3.41669 37.2036 0 37.2036V37.9488C6.64297 37.9488 12.0475 43.3533 12.0475 49.9963C12.0475 56.6393 6.64297 62.0438 0 62.0438V62.789C3.41669 62.789 6.62902 61.4578 9.04525 59.0416C11.4615 56.6261 12.7927 53.413 12.7927 49.9963Z" fill="white"/>
<path d="M9.11255 50.245H11.5969V49.7476H9.11255V50.245Z" fill="white"/>
<path d="M7.76738 45.2246L8.01606 45.6555L10.1672 44.4129L9.9185 43.9828L7.76738 45.2246Z" fill="white"/>
<path d="M4.34165 41.9802L4.77171 42.2289L6.01347 40.0778L5.58341 39.8291L4.34165 41.9802Z" fill="white"/>
<path d="M0.248681 38.3994H0V40.8829H0.248681V38.3994Z" fill="white"/>
<path d="M0.248681 59.1097H0V61.5932H0.248681V59.1097Z" fill="white"/>
<path d="M4.34165 58.0123L5.58341 60.1635L6.01347 59.9148L4.77171 57.7645L4.34165 58.0123Z" fill="white"/>
<path d="M7.76738 54.768L9.9185 56.0098L10.1672 55.5797L8.01606 54.3371L7.76738 54.768Z" fill="white"/>
<path d="M0.568765 50.245H8.33367V49.7476H0.568765C0.525266 49.6475 0.454684 49.5613 0.367686 49.4965L4.24645 42.7796L4.11759 42.7049L0.238011 49.4226C0.164966 49.3922 0.0845351 49.375 0 49.375V50.6176C0.254426 50.6176 0.47274 50.4641 0.568765 50.245Z" fill="white"/>
<path d="M49.9963 12.7927C53.413 12.7927 56.6261 11.4615 59.0416 9.04525C61.4578 6.62984 62.789 3.41669 62.789 0H62.0438C62.0438 6.64297 56.6393 12.0475 49.9963 12.0475C43.3533 12.0475 37.9488 6.64297 37.9488 0H37.2036C37.2036 3.41669 38.5348 6.62984 40.9511 9.04525C43.3673 11.4615 46.5796 12.7927 49.9963 12.7927Z" fill="white"/>
<path d="M61.5932 0.248681V0H59.1097V0.248681H61.5932Z" fill="white"/>
<path d="M40.8829 0.248681V0H38.3994V0.248681H40.8829Z" fill="white"/>
<path d="M39.8291 5.58341L40.0778 6.01348L42.2281 4.77171L41.9802 4.34083L39.8291 5.58341Z" fill="white"/>
<path d="M43.9828 9.91849L44.4129 10.1672L45.6555 8.01605L45.2246 7.76737L43.9828 9.91849Z" fill="white"/>
<path d="M49.7476 11.5969H50.245V9.11335H49.7476V11.5969Z" fill="white"/>
<path d="M54.3371 8.01605L55.5797 10.1672L56.0098 9.91849L54.768 7.76737L54.3371 8.01605Z" fill="white"/>
<path d="M57.7645 4.77171L59.9148 6.01348L60.1635 5.58341L58.0124 4.34083L57.7645 4.77171Z" fill="white"/>
<path d="M49.3799 0.0689412L43.8269 3.27471L44.0747 3.70559L49.6089 0.510493L48.6487 2.17329L48.7775 2.24797L49.7476 0.568765C49.8239 0.602414 49.9077 0.621291 49.9963 0.621291C50.2507 0.621291 50.469 0.467815 50.5651 0.248681H58.33V0H49.375C49.375 0.0238011 49.3767 0.0467817 49.3799 0.0689412Z" fill="white"/>
<path d="M99.9926 87.946V87.1999C96.5759 87.1999 93.3628 88.5311 90.9474 90.9474C88.5311 93.3628 87.1999 96.5759 87.1999 99.9926H87.9451C87.9451 93.3496 93.3496 87.946 99.9926 87.946Z" fill="white"/>
<path d="M99.7439 88.3957V90.8801H99.9926V88.3957H99.7439Z" fill="white"/>
<path d="M93.9791 90.0741L95.2209 92.2252L95.6518 91.9766L94.4092 89.8254L93.9791 90.0741Z" fill="white"/>
<path d="M89.8254 94.4092L91.9766 95.6518L92.2252 95.2209L90.0741 93.9791L89.8254 94.4092Z" fill="white"/>
<path d="M88.3957 99.7439V99.9926H90.8801V99.7439H88.3957Z" fill="white"/>
<path d="M99.9926 91.6589H99.7439V99.4238C99.6438 99.4682 99.5576 99.5379 99.4928 99.6249L92.7759 95.747L92.7013 95.8758L99.4189 99.7546C99.3885 99.8276 99.3713 99.9081 99.3713 99.9926H99.9926V91.6589Z" fill="white"/>
<path d="M0 87.1999V87.946C6.64297 87.946 12.0475 93.3496 12.0475 99.9926H12.7927C12.7927 96.5759 11.4615 93.3628 9.04525 90.9474C6.62902 88.5311 3.41669 87.1999 0 87.1999Z" fill="white"/>
<path d="M0.248681 88.3957H0V90.8801H0.248681V88.3957Z" fill="white"/>
<path d="M9.11255 99.7439V99.9926H11.5969V99.7439H9.11255Z" fill="white"/>
<path d="M7.76738 95.2209L8.01606 95.6518L10.1672 94.4092L9.9185 93.9791L7.76738 95.2209Z" fill="white"/>
<path d="M4.34165 91.9766L4.77171 92.2252L6.01347 90.0741L5.58341 89.8254L4.34165 91.9766Z" fill="white"/>
<path d="M0.621291 99.9926C0.621291 99.7382 0.467815 99.5199 0.248681 99.4238V91.6589H0V99.9926H0.621291Z" fill="white"/>
<path d="M49.9963 62.0438C43.3533 62.0438 37.9488 56.6393 37.9488 49.9963C37.9488 43.3533 43.3533 37.9488 49.9963 37.9488C56.6393 37.9488 62.0438 43.3533 62.0438 49.9963C62.0438 56.6393 56.6393 62.0438 49.9963 62.0438ZM49.9963 37.2036C46.5796 37.2036 43.3665 38.5348 40.9511 40.9511C38.5348 43.3665 37.2036 46.5796 37.2036 49.9963C37.2036 53.413 38.5348 56.6261 40.9511 59.0416C43.3665 61.4578 46.5796 62.789 49.9963 62.789C53.413 62.789 56.6261 61.4578 59.0416 59.0416C61.4578 56.6261 62.789 53.413 62.789 49.9963C62.789 46.5796 61.4578 43.3665 59.0416 40.9511C56.6261 38.5348 53.413 37.2036 49.9963 37.2036Z" fill="white"/>
<path d="M49.7476 40.8829H50.245V38.3994H49.7476V40.8829Z" fill="white"/>
<path d="M43.9828 40.0778L45.2246 42.2289L45.6555 41.9802L44.4129 39.8291L43.9828 40.0778Z" fill="white"/>
<path d="M39.8291 44.4129L41.9802 45.6546L42.2281 45.2246L40.0778 43.9828L39.8291 44.4129Z" fill="white"/>
<path d="M38.3994 50.245H40.8829V49.7476H38.3994V50.245Z" fill="white"/>
<path d="M39.8291 55.5797L40.0778 56.0098L42.2281 54.768L41.9802 54.3371L39.8291 55.5797Z" fill="white"/>
<path d="M43.9828 59.9148L44.4129 60.1635L45.6555 58.0123L45.2246 57.7645L43.9828 59.9148Z" fill="white"/>
<path d="M49.7476 61.5932H50.245V59.1097H49.7476V61.5932Z" fill="white"/>
<path d="M54.3371 58.0123L55.5797 60.1635L56.0098 59.9148L54.768 57.7645L54.3371 58.0123Z" fill="white"/>
<path d="M57.7645 54.768L59.9148 56.0098L60.1635 55.5797L58.0124 54.3371L57.7645 54.768Z" fill="white"/>
<path d="M59.1097 50.245H61.5932V49.7476H59.1097V50.245Z" fill="white"/>
<path d="M57.7645 45.2246L58.0124 45.6546L60.1635 44.4129L59.9148 43.9828L57.7645 45.2246Z" fill="white"/>
<path d="M54.3371 41.9802L54.768 42.2289L56.0098 40.0778L55.5797 39.8291L54.3371 41.9802Z" fill="white"/>
<path d="M52.1696 51.3439L52.2443 51.2151L50.5651 50.245C50.5979 50.1687 50.6176 50.0849 50.6176 49.9963C50.6176 49.7419 50.4641 49.5236 50.245 49.4275V41.6626H49.7476V49.4275C49.6475 49.471 49.5613 49.5416 49.4965 49.6286L42.7796 45.7499L42.7049 45.8787L49.4226 49.7583C49.3922 49.8313 49.375 49.9118 49.375 49.9963C49.375 50.3394 49.6532 50.6176 49.9963 50.6176C50.0201 50.6176 50.0431 50.616 50.0652 50.6135L53.2718 56.1657L53.7019 55.9179L50.5068 50.3837L52.1696 51.3439Z" fill="white"/>
<path d="M87.9451 0H87.1999C87.1999 3.41669 88.5311 6.62984 90.9474 9.04525C93.3628 11.4615 96.5759 12.7927 99.9926 12.7927V12.0475C93.3496 12.0475 87.9451 6.64297 87.9451 0Z" fill="white"/>
<path d="M90.8801 0.248681V0H88.3957V0.248681H90.8801Z" fill="white"/>
<path d="M89.8254 5.58341L90.0741 6.01348L92.2252 4.77171L91.9766 4.34083L89.8254 5.58341Z" fill="white"/>
<path d="M93.9791 9.91849L94.4092 10.1672L95.6518 8.01605L95.2209 7.76737L93.9791 9.91849Z" fill="white"/>
<path d="M99.7439 9.11336V11.5969H99.9926V9.11336H99.7439Z" fill="white"/>
<path d="M99.3713 0C99.3713 0.343064 99.6495 0.621291 99.9926 0.621291V0H99.3713Z" fill="white"/>
<path d="M12.7927 0H12.0475C12.0475 6.64297 6.64297 12.0475 0 12.0475V12.7927C3.41669 12.7927 6.62902 11.4615 9.04525 9.04525C11.4615 6.62984 12.7927 3.41669 12.7927 0Z" fill="white"/>
<path d="M0.248681 9.11336H0V11.5969L0.248681 11.5969V9.11336Z" fill="white"/>
<path d="M4.34165 8.01605L5.58341 10.1672L6.01347 9.91849L4.77171 7.76737L4.34165 8.01605Z" fill="white"/>
<path d="M7.76738 4.77171L9.9185 6.01348L10.1672 5.58341L8.01606 4.34083L7.76738 4.77171Z" fill="white"/>
<path d="M11.5969 0.248681V0H9.11255V0.248681H11.5969Z" fill="white"/>
<path d="M0.0689412 0.617188L3.27471 6.16941L3.70559 5.92155L0.510493 0.387384L2.17329 1.34764L2.24797 1.21878L0.568765 0.248681C0.602414 0.172353 0.621291 0.0886384 0.621291 0H0V0.621291C0.0229804 0.621291 0.0467815 0.61965 0.0689412 0.617188Z" fill="white"/>
</svg>
